<svg width="312" height="312" viewBox="0 0 312 312" fill="none" xmlns="http://www.w3.org/2000/svg">
<path d="M37.4399 156C37.4399 90.521 90.521 37.4399 156 37.4399C182.359 37.4399 206.695 46.0274 226.386 60.5822C231.551 48.4258 241.959 39.0348 254.772 35.2475C227.883 13.232 193.476 0 156 0C69.8435 0 0 69.8435 0 156C0 242.156 69.8435 312 156 312C242.156 312 312 242.156 312 156C312 137.968 308.933 120.622 303.285 104.475C295.599 114.865 283.506 121.797 269.768 122.507C272.885 133.115 274.56 144.351 274.56 156C274.56 221.479 221.479 274.56 156 274.56C90.521 274.56 37.4399 221.479 37.4399 156Z" fill="black"/>
<path d="M308.792 124.393C307.39 117.584 305.544 110.934 303.285 104.475C295.6 114.865 283.507 121.797 269.768 122.507C271.973 130.01 273.456 137.828 274.135 145.884C288.604 144.105 301.111 135.987 308.792 124.393Z" fill="black"/>
<path d="M156 224.25C193.605 224.25 224.25 193.663 224.25 156C224.25 118.395 193.663 87.7503 156 87.7503C118.337 87.7503 87.7502 118.395 87.7502 156C87.7502 193.605 118.395 224.25 156 224.25Z" fill="black"/>
<path d="M258.375 97.5001C277.222 97.5001 292.5 82.2219 292.5 63.3752C292.5 44.5285 277.222 29.2502 258.375 29.2502C239.528 29.2502 224.25 44.5285 224.25 63.3752C224.25 82.2219 239.528 97.5001 258.375 97.5001Z" fill="black"/>
</svg>
